<svg width="343" height="156" viewBox="0 0 343 156" fill="none" xmlns="http://www.w3.org/2000/svg">
<rect width="343" height="156" rx="16" fill="white"/>
<mask id="mask0_21_210" style="mask-type:alpha" maskUnits="userSpaceOnUse" x="0" y="0" width="343" height="156">
<rect width="343" height="156" rx="16" fill="#0053AF"/>
</mask>
<g mask="url(#mask0_21_210)">
<g filter="url(#filter0_f_21_210)">
<path d="M343 81.5008C343 143.632 266.306 194 171.7 194C77.0936 194 0.399919 143.632 0.399919 81.5008C-6.36777 18.7252 73.6657 -31.3244 171.7 -30.9984C266.306 -30.9984 343 19.3692 343 81.5008Z" fill="url(#paint0_linear_21_210)" fill-opacity="0.4"/>
</g>
<rect x="16.5" y="107.5" width="115" height="31" rx="15.5" fill="#FF9800"/>
<rect x="16.5" y="107.5" width="115" height="31" rx="15.5" stroke="#FF9800"/>
<path d="M46.3948 125.296H42.9028L42.3028 127H40.8748L43.8628 118.648H45.4468L48.4348 127H46.9948L46.3948 125.296ZM46.0108 124.18L44.6548 120.304L43.2868 124.18H46.0108ZM49.278 123.664C49.278 123 49.414 122.412 49.686 121.9C49.966 121.388 50.342 120.992 50.814 120.712C51.294 120.424 51.826 120.28 52.41 120.28C52.842 120.28 53.266 120.376 53.682 120.568C54.106 120.752 54.442 121 54.69 121.312V118.12H56.07V127H54.69V126.004C54.466 126.324 54.154 126.588 53.754 126.796C53.362 127.004 52.91 127.108 52.398 127.108C51.822 127.108 51.294 126.964 50.814 126.676C50.342 126.38 49.966 125.972 49.686 125.452C49.414 124.924 49.278 124.328 49.278 123.664ZM54.69 123.688C54.69 123.232 54.594 122.836 54.402 122.5C54.218 122.164 53.974 121.908 53.67 121.732C53.366 121.556 53.038 121.468 52.686 121.468C52.334 121.468 52.006 121.556 51.702 121.732C51.398 121.9 51.15 122.152 50.958 122.488C50.774 122.816 50.682 123.208 50.682 123.664C50.682 124.12 50.774 124.52 50.958 124.864C51.15 125.208 51.398 125.472 51.702 125.656C52.014 125.832 52.342 125.92 52.686 125.92C53.038 125.92 53.366 125.832 53.67 125.656C53.974 125.48 54.218 125.224 54.402 124.888C54.594 124.544 54.69 124.144 54.69 123.688ZM57.4108 123.664C57.4108 123 57.5468 122.412 57.8188 121.9C58.0988 121.388 58.4748 120.992 58.9468 120.712C59.4268 120.424 59.9588 120.28 60.5428 120.28C60.9748 120.28 61.3988 120.376 61.8148 120.568C62.2388 120.752 62.5748 121 62.8228 121.312V118.12H64.2028V127H62.8228V126.004C62.5988 126.324 62.2868 126.588 61.8868 126.796C61.4948 127.004 61.0428 127.108 60.5308 127.108C59.9548 127.108 59.4268 126.964 58.9468 126.676C58.4748 126.38 58.0988 125.972 57.8188 125.452C57.5468 124.924 57.4108 124.328 57.4108 123.664ZM62.8228 123.688C62.8228 123.232 62.7268 122.836 62.5348 122.5C62.3508 122.164 62.1068 121.908 61.8028 121.732C61.4988 121.556 61.1708 121.468 60.8188 121.468C60.4668 121.468 60.1388 121.556 59.8348 121.732C59.5308 121.9 59.2828 122.152 59.0908 122.488C58.9068 122.816 58.8148 123.208 58.8148 123.664C58.8148 124.12 58.9068 124.52 59.0908 124.864C59.2828 125.208 59.5308 125.472 59.8348 125.656C60.1468 125.832 60.4748 125.92 60.8188 125.92C61.1708 125.92 61.4988 125.832 61.8028 125.656C62.1068 125.48 62.3508 125.224 62.5348 124.888C62.7268 124.544 62.8228 124.144 62.8228 123.688ZM68.6608 123.664C68.6608 123 68.7968 122.412 69.0688 121.9C69.3488 121.388 69.7248 120.992 70.1968 120.712C70.6768 120.424 71.2048 120.28 71.7808 120.28C72.3008 120.28 72.7528 120.384 73.1368 120.592C73.5288 120.792 73.8408 121.044 74.0728 121.348V120.388H75.4528V127H74.0728V126.016C73.8408 126.328 73.5248 126.588 73.1248 126.796C72.7248 127.004 72.2688 127.108 71.7568 127.108C71.1888 127.108 70.6688 126.964 70.1968 126.676C69.7248 126.38 69.3488 125.972 69.0688 125.452C68.7968 124.924 68.6608 124.328 68.6608 123.664ZM74.0728 123.688C74.0728 123.232 73.9768 122.836 73.7848 122.5C73.6008 122.164 73.3568 121.908 73.0528 121.732C72.7488 121.556 72.4208 121.468 72.0688 121.468C71.7168 121.468 71.3888 121.556 71.0848 121.732C70.7808 121.9 70.5328 122.152 70.3408 122.488C70.1568 122.816 70.0648 123.208 70.0648 123.664C70.0648 124.12 70.1568 124.52 70.3408 124.864C70.5328 125.208 70.7808 125.472 71.0848 125.656C71.3968 125.832 71.7248 125.92 72.0688 125.92C72.4208 125.92 72.7488 125.832 73.0528 125.656C73.3568 125.48 73.6008 125.224 73.7848 124.888C73.9768 124.544 74.0728 124.144 74.0728 123.688ZM79.9108 123.688C79.9108 123.008 80.0468 122.412 80.3188 121.9C80.5988 121.38 80.9828 120.98 81.4708 120.7C81.9588 120.42 82.5188 120.28 83.1508 120.28C83.9508 120.28 84.6108 120.472 85.1308 120.856C85.6588 121.232 86.0148 121.772 86.1988 122.476H84.7228C84.6028 122.148 84.4108 121.892 84.1468 121.708C83.8828 121.524 83.5508 121.432 83.1508 121.432C82.5908 121.432 82.1428 121.632 81.8068 122.032C81.4788 122.424 81.3148 122.976 81.3148 123.688C81.3148 124.4 81.4788 124.956 81.8068 125.356C82.1428 125.756 82.5908 125.956 83.1508 125.956C83.9428 125.956 84.4668 125.608 84.7228 124.912H86.1988C86.0068 125.584 85.6468 126.12 85.1188 126.52C84.5908 126.912 83.9348 127.108 83.1508 127.108C82.5188 127.108 81.9588 126.968 81.4708 126.688C80.9828 126.4 80.5988 126 80.3188 125.488C80.0468 124.968 79.9108 124.368 79.9108 123.688ZM87.1061 123.664C87.1061 123 87.2421 122.412 87.5141 121.9C87.7941 121.388 88.1701 120.992 88.6421 120.712C89.1221 120.424 89.6501 120.28 90.2261 120.28C90.7461 120.28 91.1981 120.384 91.5821 120.592C91.9741 120.792 92.2861 121.044 92.5181 121.348V120.388H93.8981V127H92.5181V126.016C92.2861 126.328 91.9701 126.588 91.5701 126.796C91.1701 127.004 90.7141 127.108 90.2021 127.108C89.6341 127.108 89.1141 126.964 88.6421 126.676C88.1701 126.38 87.7941 125.972 87.5141 125.452C87.2421 124.924 87.1061 124.328 87.1061 123.664ZM92.5181 123.688C92.5181 123.232 92.4221 122.836 92.2301 122.5C92.0461 122.164 91.8021 121.908 91.4981 121.732C91.1941 121.556 90.8661 121.468 90.5141 121.468C90.1621 121.468 89.8341 121.556 89.5301 121.732C89.2261 121.9 88.9781 122.152 88.7861 122.488C88.6021 122.816 88.5101 123.208 88.5101 123.664C88.5101 124.12 88.6021 124.52 88.7861 124.864C88.9781 125.208 89.2261 125.472 89.5301 125.656C89.8421 125.832 90.1701 125.92 90.5141 125.92C90.8661 125.92 91.1941 125.832 91.4981 125.656C91.8021 125.48 92.0461 125.224 92.2301 124.888C92.4221 124.544 92.5181 124.144 92.5181 123.688ZM97.0629 121.348C97.2629 121.012 97.5269 120.752 97.8549 120.568C98.1909 120.376 98.5869 120.28 99.0429 120.28V121.696H98.6949C98.1589 121.696 97.7509 121.832 97.4709 122.104C97.1989 122.376 97.0629 122.848 97.0629 123.52V127H95.6949V120.388H97.0629V121.348ZM99.8444 123.664C99.8444 123 99.9804 122.412 100.252 121.9C100.532 121.388 100.908 120.992 101.38 120.712C101.86 120.424 102.392 120.28 102.976 120.28C103.408 120.28 103.832 120.376 104.248 120.568C104.672 120.752 105.008 121 105.256 121.312V118.12H106.636V127H105.256V126.004C105.032 126.324 104.72 126.588 104.32 126.796C103.928 127.004 103.476 127.108 102.964 127.108C102.388 127.108 101.86 126.964 101.38 126.676C100.908 126.38 100.532 125.972 100.252 125.452C99.9804 124.924 99.8444 124.328 99.8444 123.664ZM105.256 123.688C105.256 123.232 105.16 122.836 104.968 122.5C104.784 122.164 104.54 121.908 104.236 121.732C103.932 121.556 103.604 121.468 103.252 121.468C102.9 121.468 102.572 121.556 102.268 121.732C101.964 121.9 101.716 122.152 101.524 122.488C101.34 122.816 101.248 123.208 101.248 123.664C101.248 124.12 101.34 124.52 101.524 124.864C101.716 125.208 101.964 125.472 102.268 125.656C102.58 125.832 102.908 125.92 103.252 125.92C103.604 125.92 103.932 125.832 104.236 125.656C104.54 125.48 104.784 125.224 104.968 124.888C105.16 124.544 105.256 124.144 105.256 123.688Z" fill="white"/>
<circle cx="192" cy="115" r="8" fill="url(#paint1_linear_21_210)" fill-opacity="0.5"/>
<circle cx="304" cy="135" r="8" fill="url(#paint2_linear_21_210)" fill-opacity="0.5"/>
</g>
<path d="M24.88 33.192C24.624 32.7227 24.272 32.3653 23.824 32.12C23.376 31.8747 22.8533 31.752 22.256 31.752C21.5947 31.752 21.008 31.9013 20.496 32.2C19.984 32.4987 19.584 32.9253 19.296 33.48C19.008 34.0347 18.864 34.6747 18.864 35.4C18.864 36.1467 19.008 36.7973 19.296 37.352C19.5947 37.9067 20.0053 38.3333 20.528 38.632C21.0507 38.9307 21.6587 39.08 22.352 39.08C23.2053 39.08 23.904 38.856 24.448 38.408C24.992 37.9493 25.3493 37.3147 25.52 36.504H21.68V34.792H27.728V36.744C27.5787 37.5227 27.2587 38.2427 26.768 38.904C26.2773 39.5653 25.6427 40.0987 24.864 40.504C24.096 40.8987 23.232 41.096 22.272 41.096C21.1947 41.096 20.2187 40.856 19.344 40.376C18.48 39.8853 17.7973 39.208 17.296 38.344C16.8053 37.48 16.56 36.4987 16.56 35.4C16.56 34.3013 16.8053 33.32 17.296 32.456C17.7973 31.5813 18.48 30.904 19.344 30.424C20.2187 29.9333 21.1893 29.688 22.256 29.688C23.5147 29.688 24.608 29.9973 25.536 30.616C26.464 31.224 27.104 32.0827 27.456 33.192H24.88ZM37.6253 36.376C37.6253 36.696 37.6039 36.984 37.5613 37.24H31.0813C31.1346 37.88 31.3586 38.3813 31.7533 38.744C32.1479 39.1067 32.6333 39.288 33.2093 39.288C34.0413 39.288 34.6333 38.9307 34.9853 38.216H37.4013C37.1453 39.0693 36.6546 39.7733 35.9293 40.328C35.2039 40.872 34.3133 41.144 33.2573 41.144C32.4039 41.144 31.6359 40.9573 30.9533 40.584C30.2813 40.2 29.7533 39.6613 29.3693 38.968C28.9959 38.2747 28.8092 37.4747 28.8092 36.568C28.8092 35.6507 28.9959 34.8453 29.3693 34.152C29.7426 33.4587 30.2653 32.9253 30.9373 32.552C31.6093 32.1787 32.3826 31.992 33.2573 31.992C34.0999 31.992 34.8519 32.1733 35.5133 32.536C36.1853 32.8987 36.7026 33.416 37.0653 34.088C37.4386 34.7493 37.6253 35.512 37.6253 36.376ZM35.3053 35.736C35.2946 35.16 35.0866 34.7013 34.6813 34.36C34.2759 34.008 33.7799 33.832 33.1933 33.832C32.6386 33.832 32.1693 34.0027 31.7853 34.344C31.4119 34.6747 31.1826 35.1387 31.0973 35.736H35.3053ZM41.8683 33.976V38.264C41.8683 38.5627 41.9376 38.7813 42.0763 38.92C42.2256 39.048 42.4709 39.112 42.8123 39.112H43.8523V41H42.4443C40.5563 41 39.6123 40.0827 39.6123 38.248V33.976H38.5563V32.136H39.6123V29.944H41.8683V32.136H43.8523V33.976H41.8683ZM53.1319 41.112C52.3532 41.112 51.6492 40.9787 51.0199 40.712C50.4012 40.4453 49.9105 40.0613 49.5479 39.56C49.1852 39.0587 48.9985 38.4667 48.9879 37.784H51.3879C51.4199 38.2427 51.5799 38.6053 51.8679 38.872C52.1665 39.1387 52.5719 39.272 53.0839 39.272C53.6065 39.272 54.0172 39.1493 54.3159 38.904C54.6145 38.648 54.7639 38.3173 54.7639 37.912C54.7639 37.5813 54.6625 37.3093 54.4599 37.096C54.2572 36.8827 54.0012 36.7173 53.6919 36.6C53.3932 36.472 52.9772 36.3333 52.4439 36.184C51.7185 35.9707 51.1265 35.7627 50.6679 35.56C50.2199 35.3467 49.8305 35.032 49.4999 34.616C49.1799 34.1893 49.0199 33.624 49.0199 32.92C49.0199 32.2587 49.1852 31.6827 49.5159 31.192C49.8465 30.7013 50.3105 30.328 50.9079 30.072C51.5052 29.8053 52.1879 29.672 52.9559 29.672C54.1079 29.672 55.0412 29.9547 55.7559 30.52C56.4812 31.0747 56.8812 31.8533 56.9559 32.856H54.4919C54.4705 32.472 54.3052 32.1573 53.9959 31.912C53.6972 31.656 53.2972 31.528 52.7959 31.528C52.3585 31.528 52.0065 31.64 51.7399 31.864C51.4839 32.088 51.3559 32.4133 51.3559 32.84C51.3559 33.1387 51.4519 33.3893 51.6439 33.592C51.8465 33.784 52.0919 33.944 52.3799 34.072C52.6785 34.1893 53.0945 34.328 53.6279 34.488C54.3532 34.7013 54.9452 34.9147 55.4039 35.128C55.8625 35.3413 56.2572 35.6613 56.5879 36.088C56.9185 36.5147 57.0839 37.0747 57.0839 37.768C57.0839 38.3653 56.9292 38.92 56.6199 39.432C56.3105 39.944 55.8572 40.3547 55.2599 40.664C54.6625 40.9627 53.9532 41.112 53.1319 41.112ZM61.2659 33.416C61.5539 33.0107 61.9485 32.6747 62.4499 32.408C62.9619 32.1307 63.5432 31.992 64.1939 31.992C64.9512 31.992 65.6339 32.1787 66.2419 32.552C66.8605 32.9253 67.3459 33.4587 67.6979 34.152C68.0605 34.8347 68.2419 35.6293 68.2419 36.536C68.2419 37.4427 68.0605 38.248 67.6979 38.952C67.3459 39.6453 66.8605 40.184 66.2419 40.568C65.6339 40.952 64.9512 41.144 64.1939 41.144C63.5432 41.144 62.9672 41.0107 62.4659 40.744C61.9752 40.4773 61.5752 40.1413 61.2659 39.736V45.224H59.0259V32.136H61.2659V33.416ZM65.9539 36.536C65.9539 36.0027 65.8419 35.544 65.6179 35.16C65.4045 34.7653 65.1165 34.4667 64.7539 34.264C64.4019 34.0613 64.0179 33.96 63.6019 33.96C63.1965 33.96 62.8125 34.0667 62.4499 34.28C62.0979 34.4827 61.8099 34.7813 61.5859 35.176C61.3725 35.5707 61.2659 36.0347 61.2659 36.568C61.2659 37.1013 61.3725 37.5653 61.5859 37.96C61.8099 38.3547 62.0979 38.6587 62.4499 38.872C62.8125 39.0747 63.1965 39.176 63.6019 39.176C64.0179 39.176 64.4019 39.0693 64.7539 38.856C65.1165 38.6427 65.4045 38.3387 65.6179 37.944C65.8419 37.5493 65.9539 37.08 65.9539 36.536ZM78.1096 36.376C78.1096 36.696 78.0883 36.984 78.0456 37.24H71.5656C71.619 37.88 71.843 38.3813 72.2376 38.744C72.6323 39.1067 73.1176 39.288 73.6936 39.288C74.5256 39.288 75.1176 38.9307 75.4696 38.216H77.8856C77.6296 39.0693 77.139 39.7733 76.4136 40.328C75.6883 40.872 74.7976 41.144 73.7416 41.144C72.8883 41.144 72.1203 40.9573 71.4376 40.584C70.7656 40.2 70.2376 39.6613 69.8536 38.968C69.4803 38.2747 69.2936 37.4747 69.2936 36.568C69.2936 35.6507 69.4803 34.8453 69.8536 34.152C70.227 33.4587 70.7496 32.9253 71.4216 32.552C72.0936 32.1787 72.867 31.992 73.7416 31.992C74.5843 31.992 75.3363 32.1733 75.9976 32.536C76.6696 32.8987 77.187 33.416 77.5496 34.088C77.923 34.7493 78.1096 35.512 78.1096 36.376ZM75.7896 35.736C75.779 35.16 75.571 34.7013 75.1656 34.36C74.7603 34.008 74.2643 33.832 73.6776 33.832C73.123 33.832 72.6536 34.0027 72.2696 34.344C71.8963 34.6747 71.667 35.1387 71.5816 35.736H75.7896ZM79.1686 36.568C79.1686 35.6507 79.3553 34.8507 79.7286 34.168C80.102 33.4747 80.6193 32.9413 81.2806 32.568C81.942 32.184 82.6993 31.992 83.5526 31.992C84.6513 31.992 85.558 32.2693 86.2726 32.824C86.998 33.368 87.4833 34.136 87.7286 35.128H85.3126C85.1846 34.744 84.966 34.4453 84.6566 34.232C84.358 34.008 83.9846 33.896 83.5366 33.896C82.8966 33.896 82.39 34.1307 82.0166 34.6C81.6433 35.0587 81.4566 35.7147 81.4566 36.568C81.4566 37.4107 81.6433 38.0667 82.0166 38.536C82.39 38.9947 82.8966 39.224 83.5366 39.224C84.4433 39.224 85.0353 38.8187 85.3126 38.008H87.7286C87.4833 38.968 86.998 39.7307 86.2726 40.296C85.5473 40.8613 84.6406 41.144 83.5526 41.144C82.6993 41.144 81.942 40.9573 81.2806 40.584C80.6193 40.2 80.102 39.6667 79.7286 38.984C79.3553 38.2907 79.1686 37.4853 79.1686 36.568ZM90.5056 31.08C90.111 31.08 89.7803 30.9573 89.5136 30.712C89.2576 30.456 89.1296 30.1413 89.1296 29.768C89.1296 29.3947 89.2576 29.0853 89.5136 28.84C89.7803 28.584 90.111 28.456 90.5056 28.456C90.9003 28.456 91.2256 28.584 91.4816 28.84C91.7483 29.0853 91.8816 29.3947 91.8816 29.768C91.8816 30.1413 91.7483 30.456 91.4816 30.712C91.2256 30.9573 90.9003 31.08 90.5056 31.08ZM91.6096 32.136V41H89.3696V32.136H91.6096ZM93.2467 36.536C93.2467 35.64 93.4227 34.8453 93.7747 34.152C94.1374 33.4587 94.6228 32.9253 95.2308 32.552C95.8494 32.1787 96.5374 31.992 97.2948 31.992C97.9561 31.992 98.5321 32.1253 99.0228 32.392C99.5241 32.6587 99.9241 32.9947 100.223 33.4V32.136H102.479V41H100.223V39.704C99.9348 40.12 99.5348 40.4667 99.0228 40.744C98.5214 41.0107 97.9401 41.144 97.2788 41.144C96.5321 41.144 95.8494 40.952 95.2308 40.568C94.6228 40.184 94.1374 39.6453 93.7747 38.952C93.4227 38.248 93.2467 37.4427 93.2467 36.536ZM100.223 36.568C100.223 36.024 100.116 35.56 99.9028 35.176C99.6894 34.7813 99.4014 34.4827 99.0388 34.28C98.6761 34.0667 98.2868 33.96 97.8708 33.96C97.4548 33.96 97.0708 34.0613 96.7188 34.264C96.3668 34.4667 96.0788 34.7653 95.8548 35.16C95.6414 35.544 95.5348 36.0027 95.5348 36.536C95.5348 37.0693 95.6414 37.5387 95.8548 37.944C96.0788 38.3387 96.3668 38.6427 96.7188 38.856C97.0814 39.0693 97.4654 39.176 97.8708 39.176C98.2868 39.176 98.6761 39.0747 99.0388 38.872C99.4014 38.6587 99.6894 38.36 99.9028 37.976C100.116 37.5813 100.223 37.112 100.223 36.568ZM106.907 29.16V41H104.667V29.16H106.907ZM118.116 41.112C117.071 41.112 116.111 40.8667 115.236 40.376C114.361 39.8853 113.668 39.208 113.156 38.344C112.644 37.4693 112.388 36.4827 112.388 35.384C112.388 34.296 112.644 33.32 113.156 32.456C113.668 31.5813 114.361 30.8987 115.236 30.408C116.111 29.9173 117.071 29.672 118.116 29.672C119.172 29.672 120.132 29.9173 120.996 30.408C121.871 30.8987 122.559 31.5813 123.06 32.456C123.572 33.32 123.828 34.296 123.828 35.384C123.828 36.4827 123.572 37.4693 123.06 38.344C122.559 39.208 121.871 39.8853 120.996 40.376C120.121 40.8667 119.161 41.112 118.116 41.112ZM118.116 39.112C118.788 39.112 119.38 38.9627 119.892 38.664C120.404 38.3547 120.804 37.9173 121.092 37.352C121.38 36.7867 121.524 36.1307 121.524 35.384C121.524 34.6373 121.38 33.9867 121.092 33.432C120.804 32.8667 120.404 32.4347 119.892 32.136C119.38 31.8373 118.788 31.688 118.116 31.688C117.444 31.688 116.847 31.8373 116.324 32.136C115.812 32.4347 115.412 32.8667 115.124 33.432C114.836 33.9867 114.692 34.6373 114.692 35.384C114.692 36.1307 114.836 36.7867 115.124 37.352C115.412 37.9173 115.812 38.3547 116.324 38.664C116.847 38.9627 117.444 39.112 118.116 39.112ZM129.559 33.976H128.007V41H125.735V33.976H124.727V32.136H125.735V31.688C125.735 30.6 126.044 29.8 126.663 29.288C127.281 28.776 128.215 28.536 129.463 28.568V30.456C128.919 30.4453 128.54 30.536 128.327 30.728C128.113 30.92 128.007 31.2667 128.007 31.768V32.136H129.559V33.976ZM135.074 33.976H133.522V41H131.25V33.976H130.242V32.136H131.25V31.688C131.25 30.6 131.56 29.8 132.178 29.288C132.797 28.776 133.73 28.536 134.978 28.568V30.456C134.434 30.4453 134.056 30.536 133.842 30.728C133.629 30.92 133.522 31.2667 133.522 31.768V32.136H135.074V33.976ZM144.766 36.376C144.766 36.696 144.745 36.984 144.702 37.24H138.222C138.275 37.88 138.499 38.3813 138.894 38.744C139.289 39.1067 139.774 39.288 140.35 39.288C141.182 39.288 141.774 38.9307 142.126 38.216H144.542C144.286 39.0693 143.795 39.7733 143.07 40.328C142.345 40.872 141.454 41.144 140.398 41.144C139.545 41.144 138.777 40.9573 138.094 40.584C137.422 40.2 136.894 39.6613 136.51 38.968C136.137 38.2747 135.95 37.4747 135.95 36.568C135.95 35.6507 136.137 34.8453 136.51 34.152C136.883 33.4587 137.406 32.9253 138.078 32.552C138.75 32.1787 139.523 31.992 140.398 31.992C141.241 31.992 141.993 32.1733 142.654 32.536C143.326 32.8987 143.843 33.416 144.206 34.088C144.579 34.7493 144.766 35.512 144.766 36.376ZM142.446 35.736C142.435 35.16 142.227 34.7013 141.822 34.36C141.417 34.008 140.921 33.832 140.334 33.832C139.779 33.832 139.31 34.0027 138.926 34.344C138.553 34.6747 138.323 35.1387 138.238 35.736H142.446ZM148.641 33.512C148.929 33.0427 149.302 32.6747 149.761 32.408C150.23 32.1413 150.764 32.008 151.361 32.008V34.36H150.769C150.065 34.36 149.532 34.5253 149.169 34.856C148.817 35.1867 148.641 35.7627 148.641 36.584V41H146.401V32.136H148.641V33.512ZM156.262 41.144C155.536 41.144 154.886 41.016 154.31 40.76C153.734 40.4933 153.275 40.136 152.934 39.688C152.603 39.24 152.422 38.744 152.39 38.2H154.646C154.688 38.5413 154.854 38.824 155.142 39.048C155.44 39.272 155.808 39.384 156.246 39.384C156.672 39.384 157.003 39.2987 157.238 39.128C157.483 38.9573 157.606 38.7387 157.606 38.472C157.606 38.184 157.456 37.9707 157.158 37.832C156.87 37.6827 156.406 37.5227 155.766 37.352C155.104 37.192 154.56 37.0267 154.134 36.856C153.718 36.6853 153.355 36.424 153.046 36.072C152.747 35.72 152.598 35.2453 152.598 34.648C152.598 34.1573 152.736 33.7093 153.014 33.304C153.302 32.8987 153.707 32.5787 154.23 32.344C154.763 32.1093 155.387 31.992 156.102 31.992C157.158 31.992 158 32.2587 158.63 32.792C159.259 33.3147 159.606 34.024 159.67 34.92H157.526C157.494 34.568 157.344 34.2907 157.078 34.088C156.822 33.8747 156.475 33.768 156.038 33.768C155.632 33.768 155.318 33.8427 155.094 33.992C154.88 34.1413 154.774 34.3493 154.774 34.616C154.774 34.9147 154.923 35.144 155.222 35.304C155.52 35.4533 155.984 35.608 156.614 35.768C157.254 35.928 157.782 36.0933 158.198 36.264C158.614 36.4347 158.971 36.7013 159.27 37.064C159.579 37.416 159.739 37.8853 159.75 38.472C159.75 38.984 159.606 39.4427 159.318 39.848C159.04 40.2533 158.635 40.5733 158.102 40.808C157.579 41.032 156.966 41.144 156.262 41.144Z" fill="#FF9800"/>
<path d="M25.156 57.72V66H24.316V59.388L21.364 66H20.752L17.8 59.412V66H16.96V57.72H17.848L21.052 64.896L24.256 57.72H25.156ZM26.6776 62.712C26.6776 62.04 26.8096 61.452 27.0736 60.948C27.3456 60.436 27.7176 60.044 28.1896 59.772C28.6696 59.492 29.2096 59.352 29.8096 59.352C30.4336 59.352 30.9696 59.496 31.4176 59.784C31.8736 60.072 32.2016 60.44 32.4016 60.888V59.448H33.2416V66H32.4016V64.548C32.1936 64.996 31.8616 65.368 31.4056 65.664C30.9576 65.952 30.4216 66.096 29.7976 66.096C29.2056 66.096 28.6696 65.956 28.1896 65.676C27.7176 65.396 27.3456 65 27.0736 64.488C26.8096 63.976 26.6776 63.384 26.6776 62.712ZM32.4016 62.724C32.4016 62.196 32.2936 61.732 32.0776 61.332C31.8616 60.932 31.5656 60.624 31.1896 60.408C30.8216 60.192 30.4136 60.084 29.9656 60.084C29.5016 60.084 29.0856 60.188 28.7176 60.396C28.3496 60.604 28.0576 60.908 27.8416 61.308C27.6336 61.7 27.5296 62.168 27.5296 62.712C27.5296 63.248 27.6336 63.72 27.8416 64.128C28.0576 64.528 28.3496 64.836 28.7176 65.052C29.0856 65.26 29.5016 65.364 29.9656 65.364C30.4136 65.364 30.8216 65.256 31.1896 65.04C31.5656 64.824 31.8616 64.516 32.0776 64.116C32.2936 63.716 32.4016 63.252 32.4016 62.724ZM38.2312 59.328C39.0152 59.328 39.6552 59.572 40.1512 60.06C40.6472 60.54 40.8952 61.24 40.8952 62.16V66H40.0672V62.256C40.0672 61.544 39.8872 61 39.5272 60.624C39.1752 60.248 38.6912 60.06 38.0752 60.06C37.4432 60.06 36.9392 60.26 36.5632 60.66C36.1872 61.06 35.9992 61.648 35.9992 62.424V66H35.1592V59.448H35.9992V60.564C36.2072 60.164 36.5072 59.86 36.8992 59.652C37.2912 59.436 37.7352 59.328 38.2312 59.328ZM48.153 59.448L44.265 69.084H43.389L44.661 65.964L41.973 59.448H42.897L45.129 65.04L47.289 59.448H48.153ZM55.453 66.096C54.837 66.096 54.281 65.96 53.785 65.688C53.297 65.408 52.909 65.016 52.621 64.512C52.341 64 52.201 63.404 52.201 62.724C52.201 62.044 52.345 61.452 52.633 60.948C52.921 60.436 53.313 60.044 53.809 59.772C54.305 59.492 54.861 59.352 55.477 59.352C56.093 59.352 56.649 59.492 57.145 59.772C57.649 60.044 58.041 60.436 58.321 60.948C58.609 61.452 58.753 62.044 58.753 62.724C58.753 63.396 58.609 63.988 58.321 64.5C58.033 65.012 57.637 65.408 57.133 65.688C56.629 65.96 56.069 66.096 55.453 66.096ZM55.453 65.364C55.885 65.364 56.285 65.268 56.653 65.076C57.021 64.876 57.317 64.58 57.541 64.188C57.773 63.788 57.889 63.3 57.889 62.724C57.889 62.148 57.777 61.664 57.553 61.272C57.329 60.872 57.033 60.576 56.665 60.384C56.297 60.184 55.897 60.084 55.465 60.084C55.033 60.084 54.633 60.184 54.265 60.384C53.897 60.576 53.601 60.872 53.377 61.272C53.161 61.664 53.053 62.148 53.053 62.724C53.053 63.3 53.161 63.788 53.377 64.188C53.601 64.58 53.893 64.876 54.253 65.076C54.621 65.268 55.021 65.364 55.453 65.364ZM62.8642 60.156H61.3402V66H60.5002V60.156H59.5882V59.448H60.5002V58.992C60.5002 58.28 60.6802 57.756 61.0402 57.42C61.4082 57.084 62.0002 56.916 62.8162 56.916V57.636C62.2722 57.636 61.8882 57.74 61.6642 57.948C61.4482 58.156 61.3402 58.504 61.3402 58.992V59.448H62.8642V60.156ZM66.7666 60.156H65.2426V66H64.4026V60.156H63.4906V59.448H64.4026V58.992C64.4026 58.28 64.5826 57.756 64.9426 57.42C65.3106 57.084 65.9026 56.916 66.7186 56.916V57.636C66.1746 57.636 65.7906 57.74 65.5666 57.948C65.3506 58.156 65.2426 58.504 65.2426 58.992V59.448H66.7666V60.156ZM74.0169 62.388C74.0169 62.676 74.0089 62.896 73.9929 63.048H68.5569C68.5809 63.544 68.7009 63.968 68.9169 64.32C69.1329 64.672 69.4169 64.94 69.7689 65.124C70.1209 65.3 70.5049 65.388 70.9209 65.388C71.4649 65.388 71.9209 65.256 72.2889 64.992C72.6649 64.728 72.9129 64.372 73.0329 63.924H73.9209C73.7609 64.564 73.4169 65.088 72.8889 65.496C72.3689 65.896 71.7129 66.096 70.9209 66.096C70.3049 66.096 69.7529 65.96 69.2649 65.688C68.7769 65.408 68.3929 65.016 68.1129 64.512C67.8409 64 67.7049 63.404 67.7049 62.724C67.7049 62.044 67.8409 61.448 68.1129 60.936C68.3849 60.424 68.7649 60.032 69.2529 59.76C69.7409 59.488 70.2969 59.352 70.9209 59.352C71.5449 59.352 72.0889 59.488 72.5529 59.76C73.0249 60.032 73.3849 60.4 73.6329 60.864C73.8889 61.32 74.0169 61.828 74.0169 62.388ZM73.1649 62.364C73.1729 61.876 73.0729 61.46 72.8649 61.116C72.6649 60.772 72.3889 60.512 72.0369 60.336C71.6849 60.16 71.3009 60.072 70.8849 60.072C70.2609 60.072 69.7289 60.272 69.2889 60.672C68.8489 61.072 68.6049 61.636 68.5569 62.364H73.1649ZM76.3938 60.612C76.5778 60.204 76.8578 59.888 77.2338 59.664C77.6178 59.44 78.0858 59.328 78.6378 59.328V60.204H78.4098C77.8018 60.204 77.3138 60.368 76.9458 60.696C76.5778 61.024 76.3938 61.572 76.3938 62.34V66H75.5538V59.448H76.3938V60.612ZM82.1574 66.096C81.4054 66.096 80.7894 65.924 80.3094 65.58C79.8374 65.228 79.5734 64.752 79.5174 64.152H80.3814C80.4214 64.52 80.5934 64.82 80.8974 65.052C81.2094 65.276 81.6254 65.388 82.1454 65.388C82.6014 65.388 82.9574 65.28 83.2134 65.064C83.4774 64.848 83.6094 64.58 83.6094 64.26C83.6094 64.036 83.5374 63.852 83.3934 63.708C83.2494 63.564 83.0654 63.452 82.8414 63.372C82.6254 63.284 82.3294 63.192 81.9534 63.096C81.4654 62.968 81.0694 62.84 80.7654 62.712C80.4614 62.584 80.2014 62.396 79.9854 62.148C79.7774 61.892 79.6734 61.552 79.6734 61.128C79.6734 60.808 79.7694 60.512 79.9614 60.24C80.1534 59.968 80.4254 59.752 80.7774 59.592C81.1294 59.432 81.5294 59.352 81.9774 59.352C82.6814 59.352 83.2494 59.532 83.6814 59.892C84.1134 60.244 84.3454 60.732 84.3774 61.356H83.5374C83.5134 60.972 83.3614 60.664 83.0814 60.432C82.8094 60.192 82.4334 60.072 81.9534 60.072C81.5294 60.072 81.1854 60.172 80.9214 60.372C80.6574 60.572 80.5254 60.82 80.5254 61.116C80.5254 61.372 80.6014 61.584 80.7534 61.752C80.9134 61.912 81.1094 62.04 81.3414 62.136C81.5734 62.224 81.8854 62.324 82.2774 62.436C82.7494 62.564 83.1254 62.688 83.4054 62.808C83.6854 62.928 83.9254 63.104 84.1254 63.336C84.3254 63.568 84.4294 63.876 84.4374 64.26C84.4374 64.612 84.3414 64.928 84.1494 65.208C83.9574 65.48 83.6894 65.696 83.3454 65.856C83.0014 66.016 82.6054 66.096 82.1574 66.096ZM97.9516 59.448L95.8996 66H95.0596L93.2476 60.504L91.4356 66H90.5836L88.5316 59.448H89.3836L91.0156 65.148L92.8516 59.448H93.6916L95.5036 65.16L97.1236 59.448H97.9516ZM98.7127 62.712C98.7127 62.04 98.8447 61.452 99.1087 60.948C99.3807 60.436 99.7527 60.044 100.225 59.772C100.705 59.492 101.245 59.352 101.845 59.352C102.469 59.352 103.005 59.496 103.453 59.784C103.909 60.072 104.237 60.44 104.437 60.888V59.448H105.277V66H104.437V64.548C104.229 64.996 103.897 65.368 103.441 65.664C102.993 65.952 102.457 66.096 101.833 66.096C101.241 66.096 100.705 65.956 100.225 65.676C99.7527 65.396 99.3807 65 99.1087 64.488C98.8447 63.976 98.7127 63.384 98.7127 62.712ZM104.437 62.724C104.437 62.196 104.329 61.732 104.113 61.332C103.897 60.932 103.601 60.624 103.225 60.408C102.857 60.192 102.449 60.084 102.001 60.084C101.537 60.084 101.121 60.188 100.753 60.396C100.385 60.604 100.093 60.908 99.8767 61.308C99.6687 61.7 99.5647 62.168 99.5647 62.712C99.5647 63.248 99.6687 63.72 99.8767 64.128C100.093 64.528 100.385 64.836 100.753 65.052C101.121 65.26 101.537 65.364 102.001 65.364C102.449 65.364 102.857 65.256 103.225 65.04C103.601 64.824 103.897 64.516 104.113 64.116C104.329 63.716 104.437 63.252 104.437 62.724ZM107.614 58.212C107.446 58.212 107.302 58.152 107.182 58.032C107.062 57.912 107.002 57.764 107.002 57.588C107.002 57.412 107.062 57.268 107.182 57.156C107.302 57.036 107.446 56.976 107.614 56.976C107.782 56.976 107.926 57.036 108.046 57.156C108.166 57.268 108.226 57.412 108.226 57.588C108.226 57.764 108.166 57.912 108.046 58.032C107.926 58.152 107.782 58.212 107.614 58.212ZM108.034 59.448V66H107.194V59.448H108.034ZM111.029 60.156V64.224C111.029 64.624 111.105 64.9 111.257 65.052C111.409 65.204 111.677 65.28 112.061 65.28H112.829V66H111.929C111.337 66 110.897 65.864 110.609 65.592C110.321 65.312 110.177 64.856 110.177 64.224V60.156H109.265V59.448H110.177V57.804H111.029V59.448H112.829V60.156H111.029ZM114.634 58.212C114.466 58.212 114.322 58.152 114.202 58.032C114.082 57.912 114.022 57.764 114.022 57.588C114.022 57.412 114.082 57.268 114.202 57.156C114.322 57.036 114.466 56.976 114.634 56.976C114.802 56.976 114.946 57.036 115.066 57.156C115.186 57.268 115.246 57.412 115.246 57.588C115.246 57.764 115.186 57.912 115.066 58.032C114.946 58.152 114.802 58.212 114.634 58.212ZM115.054 59.448V66H114.214V59.448H115.054ZM120.028 59.328C120.812 59.328 121.452 59.572 121.948 60.06C122.444 60.54 122.692 61.24 122.692 62.16V66H121.864V62.256C121.864 61.544 121.684 61 121.324 60.624C120.972 60.248 120.488 60.06 119.872 60.06C119.24 60.06 118.736 60.26 118.36 60.66C117.984 61.06 117.796 61.648 117.796 62.424V66H116.956V59.448H117.796V60.564C118.004 60.164 118.304 59.86 118.696 59.652C119.088 59.436 119.532 59.328 120.028 59.328ZM127.298 59.352C127.914 59.352 128.45 59.496 128.906 59.784C129.362 60.072 129.69 60.436 129.89 60.876V59.448H130.73V66.168C130.73 66.768 130.598 67.3 130.334 67.764C130.078 68.228 129.718 68.584 129.254 68.832C128.79 69.088 128.262 69.216 127.67 69.216C126.83 69.216 126.13 69.016 125.57 68.616C125.018 68.216 124.674 67.672 124.538 66.984H125.366C125.51 67.44 125.782 67.804 126.182 68.076C126.59 68.348 127.086 68.484 127.67 68.484C128.094 68.484 128.474 68.392 128.81 68.208C129.146 68.032 129.41 67.768 129.602 67.416C129.794 67.064 129.89 66.648 129.89 66.168V64.548C129.682 64.996 129.35 65.368 128.894 65.664C128.446 65.952 127.914 66.096 127.298 66.096C126.698 66.096 126.158 65.956 125.678 65.676C125.206 65.396 124.834 65 124.562 64.488C124.298 63.976 124.166 63.384 124.166 62.712C124.166 62.04 124.298 61.452 124.562 60.948C124.834 60.436 125.206 60.044 125.678 59.772C126.158 59.492 126.698 59.352 127.298 59.352ZM129.89 62.724C129.89 62.196 129.782 61.732 129.566 61.332C129.35 60.932 129.054 60.624 128.678 60.408C128.31 60.192 127.902 60.084 127.454 60.084C126.99 60.084 126.574 60.188 126.206 60.396C125.838 60.604 125.546 60.908 125.33 61.308C125.122 61.7 125.018 62.168 125.018 62.712C125.018 63.248 125.122 63.72 125.33 64.128C125.546 64.528 125.838 64.836 126.206 65.052C126.574 65.26 126.99 65.364 127.454 65.364C127.902 65.364 128.31 65.256 128.678 65.04C129.054 64.824 129.35 64.516 129.566 64.116C129.782 63.716 129.89 63.252 129.89 62.724ZM138.52 60.156H136.996V66H136.156V60.156H135.244V59.448H136.156V58.992C136.156 58.28 136.336 57.756 136.696 57.42C137.064 57.084 137.656 56.916 138.472 56.916V57.636C137.928 57.636 137.544 57.74 137.32 57.948C137.104 58.156 136.996 58.504 136.996 58.992V59.448H138.52V60.156ZM142.711 66.096C142.095 66.096 141.539 65.96 141.043 65.688C140.555 65.408 140.167 65.016 139.879 64.512C139.599 64 139.459 63.404 139.459 62.724C139.459 62.044 139.603 61.452 139.891 60.948C140.179 60.436 140.571 60.044 141.067 59.772C141.563 59.492 142.119 59.352 142.735 59.352C143.351 59.352 143.907 59.492 144.403 59.772C144.907 60.044 145.299 60.436 145.579 60.948C145.867 61.452 146.011 62.044 146.011 62.724C146.011 63.396 145.867 63.988 145.579 64.5C145.291 65.012 144.895 65.408 144.391 65.688C143.887 65.96 143.327 66.096 142.711 66.096ZM142.711 65.364C143.143 65.364 143.543 65.268 143.911 65.076C144.279 64.876 144.575 64.58 144.799 64.188C145.031 63.788 145.147 63.3 145.147 62.724C145.147 62.148 145.035 61.664 144.811 61.272C144.587 60.872 144.291 60.576 143.923 60.384C143.555 60.184 143.155 60.084 142.723 60.084C142.291 60.084 141.891 60.184 141.523 60.384C141.155 60.576 140.859 60.872 140.635 61.272C140.419 61.664 140.311 62.148 140.311 62.724C140.311 63.3 140.419 63.788 140.635 64.188C140.859 64.58 141.151 64.876 141.511 65.076C141.879 65.268 142.279 65.364 142.711 65.364ZM148.382 60.612C148.566 60.204 148.846 59.888 149.222 59.664C149.606 59.44 150.074 59.328 150.626 59.328V60.204H150.398C149.79 60.204 149.302 60.368 148.934 60.696C148.566 61.024 148.382 61.572 148.382 62.34V66H147.542V59.448H148.382V60.612ZM22.36 73.448L18.472 83.084H17.596L18.868 79.964L16.18 73.448H17.104L19.336 79.04L21.496 73.448H22.36ZM26.3671 80.096C25.7511 80.096 25.1951 79.96 24.6991 79.688C24.2111 79.408 23.8231 79.016 23.5351 78.512C23.2551 78 23.1151 77.404 23.1151 76.724C23.1151 76.044 23.2591 75.452 23.5471 74.948C23.8351 74.436 24.2271 74.044 24.7231 73.772C25.2191 73.492 25.7751 73.352 26.3911 73.352C27.0071 73.352 27.5631 73.492 28.0591 73.772C28.5631 74.044 28.9551 74.436 29.2351 74.948C29.5231 75.452 29.6671 76.044 29.6671 76.724C29.6671 77.396 29.5231 77.988 29.2351 78.5C28.9471 79.012 28.5511 79.408 28.0471 79.688C27.5431 79.96 26.9831 80.096 26.3671 80.096ZM26.3671 79.364C26.7991 79.364 27.1991 79.268 27.5671 79.076C27.9351 78.876 28.2311 78.58 28.4551 78.188C28.6871 77.788 28.8031 77.3 28.8031 76.724C28.8031 76.148 28.6911 75.664 28.4671 75.272C28.2431 74.872 27.9471 74.576 27.5791 74.384C27.2111 74.184 26.8111 74.084 26.3791 74.084C25.9471 74.084 25.5471 74.184 25.1791 74.384C24.8111 74.576 24.5151 74.872 24.2911 75.272C24.0751 75.664 23.9671 76.148 23.9671 76.724C23.9671 77.3 24.0751 77.788 24.2911 78.188C24.5151 78.58 24.8071 78.876 25.1671 79.076C25.5351 79.268 25.9351 79.364 26.3671 79.364ZM36.8743 73.448V80H36.0343V78.848C35.8423 79.256 35.5463 79.568 35.1463 79.784C34.7463 80 34.2983 80.108 33.8023 80.108C33.0183 80.108 32.3783 79.868 31.8823 79.388C31.3863 78.9 31.1383 78.196 31.1383 77.276V73.448H31.9663V77.18C31.9663 77.892 32.1423 78.436 32.4943 78.812C32.8543 79.188 33.3423 79.376 33.9583 79.376C34.5903 79.376 35.0943 79.176 35.4703 78.776C35.8463 78.376 36.0343 77.788 36.0343 77.012V73.448H36.8743ZM39.56 78.608L38.312 81.752H37.736L38.624 78.608H39.56ZM46.9072 73.352C47.5232 73.352 48.0592 73.496 48.5152 73.784C48.9712 74.072 49.2992 74.436 49.4992 74.876V73.448H50.3392V80.168C50.3392 80.768 50.2072 81.3 49.9432 81.764C49.6872 82.228 49.3272 82.584 48.8632 82.832C48.3992 83.088 47.8712 83.216 47.2792 83.216C46.4392 83.216 45.7392 83.016 45.1792 82.616C44.6272 82.216 44.2832 81.672 44.1472 80.984H44.9752C45.1192 81.44 45.3912 81.804 45.7912 82.076C46.1992 82.348 46.6952 82.484 47.2792 82.484C47.7032 82.484 48.0832 82.392 48.4192 82.208C48.7552 82.032 49.0192 81.768 49.2112 81.416C49.4032 81.064 49.4992 80.648 49.4992 80.168V78.548C49.2912 78.996 48.9592 79.368 48.5032 79.664C48.0552 79.952 47.5232 80.096 46.9072 80.096C46.3072 80.096 45.7672 79.956 45.2872 79.676C44.8152 79.396 44.4432 79 44.1712 78.488C43.9072 77.976 43.7752 77.384 43.7752 76.712C43.7752 76.04 43.9072 75.452 44.1712 74.948C44.4432 74.436 44.8152 74.044 45.2872 73.772C45.7672 73.492 46.3072 73.352 46.9072 73.352ZM49.4992 76.724C49.4992 76.196 49.3912 75.732 49.1752 75.332C48.9592 74.932 48.6632 74.624 48.2872 74.408C47.9192 74.192 47.5112 74.084 47.0632 74.084C46.5992 74.084 46.1832 74.188 45.8152 74.396C45.4472 74.604 45.1552 74.908 44.9392 75.308C44.7312 75.7 44.6272 76.168 44.6272 76.712C44.6272 77.248 44.7312 77.72 44.9392 78.128C45.1552 78.528 45.4472 78.836 45.8152 79.052C46.1832 79.26 46.5992 79.364 47.0632 79.364C47.5112 79.364 47.9192 79.256 48.2872 79.04C48.6632 78.824 48.9592 78.516 49.1752 78.116C49.3912 77.716 49.4992 77.252 49.4992 76.724ZM58.1849 76.388C58.1849 76.676 58.1769 76.896 58.1609 77.048H52.7249C52.7489 77.544 52.8689 77.968 53.0849 78.32C53.3009 78.672 53.5849 78.94 53.9369 79.124C54.2889 79.3 54.6729 79.388 55.0889 79.388C55.6329 79.388 56.0889 79.256 56.4569 78.992C56.8329 78.728 57.0809 78.372 57.2009 77.924H58.0889C57.9289 78.564 57.5849 79.088 57.0569 79.496C56.5369 79.896 55.8809 80.096 55.0889 80.096C54.4729 80.096 53.9209 79.96 53.4329 79.688C52.9449 79.408 52.5609 79.016 52.2809 78.512C52.0089 78 51.8729 77.404 51.8729 76.724C51.8729 76.044 52.0089 75.448 52.2809 74.936C52.5529 74.424 52.9329 74.032 53.4209 73.76C53.9089 73.488 54.4649 73.352 55.0889 73.352C55.7129 73.352 56.2569 73.488 56.7209 73.76C57.1929 74.032 57.5529 74.4 57.8009 74.864C58.0569 75.32 58.1849 75.828 58.1849 76.388ZM57.3329 76.364C57.3409 75.876 57.2409 75.46 57.0329 75.116C56.8329 74.772 56.5569 74.512 56.2049 74.336C55.8529 74.16 55.4689 74.072 55.0529 74.072C54.4289 74.072 53.8969 74.272 53.4569 74.672C53.0169 75.072 52.7729 75.636 52.7249 76.364H57.3329ZM60.8137 74.156V78.224C60.8137 78.624 60.8897 78.9 61.0417 79.052C61.1937 79.204 61.4617 79.28 61.8457 79.28H62.6137V80H61.7137C61.1217 80 60.6817 79.864 60.3937 79.592C60.1057 79.312 59.9617 78.856 59.9617 78.224V74.156H59.0497V73.448H59.9617V71.804H60.8137V73.448H62.6137V74.156H60.8137ZM67.712 72.212C67.544 72.212 67.4 72.152 67.28 72.032C67.16 71.912 67.1 71.764 67.1 71.588C67.1 71.412 67.16 71.268 67.28 71.156C67.4 71.036 67.544 70.976 67.712 70.976C67.88 70.976 68.024 71.036 68.144 71.156C68.264 71.268 68.324 71.412 68.324 71.588C68.324 71.764 68.264 71.912 68.144 72.032C68.024 72.152 67.88 72.212 67.712 72.212ZM68.132 73.448V80H67.292V73.448H68.132ZM71.1262 74.156V78.224C71.1262 78.624 71.2022 78.9 71.3542 79.052C71.5062 79.204 71.7742 79.28 72.1582 79.28H72.9262V80H72.0262C71.4342 80 70.9942 79.864 70.7062 79.592C70.4182 79.312 70.2742 78.856 70.2742 78.224V74.156H69.3622V73.448H70.2742V71.804H71.1262V73.448H72.9262V74.156H71.1262ZM80.6765 73.328C81.4605 73.328 82.1005 73.572 82.5965 74.06C83.0925 74.54 83.3405 75.24 83.3405 76.16V80H82.5125V76.256C82.5125 75.544 82.3325 75 81.9725 74.624C81.6205 74.248 81.1365 74.06 80.5205 74.06C79.8885 74.06 79.3845 74.26 79.0085 74.66C78.6325 75.06 78.4445 75.648 78.4445 76.424V80H77.6045V73.448H78.4445V74.564C78.6525 74.164 78.9525 73.86 79.3445 73.652C79.7365 73.436 80.1805 73.328 80.6765 73.328ZM88.0663 80.096C87.4503 80.096 86.8943 79.96 86.3983 79.688C85.9103 79.408 85.5223 79.016 85.2343 78.512C84.9543 78 84.8143 77.404 84.8143 76.724C84.8143 76.044 84.9583 75.452 85.2463 74.948C85.5343 74.436 85.9263 74.044 86.4223 73.772C86.9183 73.492 87.4743 73.352 88.0903 73.352C88.7063 73.352 89.2623 73.492 89.7583 73.772C90.2623 74.044 90.6543 74.436 90.9343 74.948C91.2223 75.452 91.3663 76.044 91.3663 76.724C91.3663 77.396 91.2223 77.988 90.9343 78.5C90.6463 79.012 90.2503 79.408 89.7463 79.688C89.2423 79.96 88.6823 80.096 88.0663 80.096ZM88.0663 79.364C88.4983 79.364 88.8983 79.268 89.2663 79.076C89.6343 78.876 89.9303 78.58 90.1543 78.188C90.3863 77.788 90.5023 77.3 90.5023 76.724C90.5023 76.148 90.3903 75.664 90.1663 75.272C89.9423 74.872 89.6463 74.576 89.2783 74.384C88.9103 74.184 88.5103 74.084 88.0783 74.084C87.6463 74.084 87.2463 74.184 86.8783 74.384C86.5103 74.576 86.2143 74.872 85.9903 75.272C85.7743 75.664 85.6663 76.148 85.6663 76.724C85.6663 77.3 85.7743 77.788 85.9903 78.188C86.2143 78.58 86.5063 78.876 86.8663 79.076C87.2343 79.268 87.6343 79.364 88.0663 79.364ZM101.538 73.448L99.4855 80H98.6455L96.8335 74.504L95.0215 80H94.1695L92.1175 73.448H92.9695L94.6015 79.148L96.4375 73.448H97.2775L99.0895 79.16L100.71 73.448H101.538Z" fill="#343434"/>
<circle cx="273" cy="70" r="58" fill="url(#paint3_linear_21_210)" fill-opacity="0.5"/>
<g clip-path="url(#clip0_21_210)">
<path d="M206.44 92.3373L206.863 43.0597C206.923 36.0576 212.591 30.4444 219.543 30.5017L264.106 30.869C271.059 30.9263 276.63 36.6322 276.57 43.6343L276.147 92.912L206.44 92.3373Z" fill="url(#paint4_linear_21_210)"/>
<path d="M276.033 105.104L275.888 121.951C275.828 128.953 270.16 134.566 263.208 134.509L218.644 134.141C211.692 134.084 206.121 128.378 206.181 121.376L206.326 104.529L276.033 105.104ZM241.207 124.376C244.527 124.404 247.268 121.715 247.297 118.345C247.326 115.002 244.657 112.243 241.312 112.215C237.992 112.188 235.251 114.877 235.222 118.246C235.193 121.615 237.862 124.349 241.207 124.376Z" fill="url(#paint5_linear_21_210)"/>
</g>
<g filter="url(#filter1_b_21_210)">
<rect width="77.332" height="103.57" rx="6.45508" transform="matrix(-0.965495 -0.259842 -0.256781 0.966625 314.824 42.4514)" fill="url(#paint6_linear_21_210)"/>
<rect x="-0.71009" y="0.410611" width="76.1701" height="102.408" rx="5.87412" transform="matrix(-0.965495 -0.259842 -0.256781 0.966625 313.534 42.2806)" stroke="url(#paint7_linear_21_210)" stroke-width="1.16191"/>
</g>
<rect width="17.8461" height="20.0295" rx="4.20178" transform="matrix(0.966934 0.255023 -0.251769 0.967788 249.95 34.8779)" fill="url(#paint8_linear_21_210)"/>
<line x1="1.29102" y1="-1.29102" x2="80.8824" y2="-1.29102" transform="matrix(0.258726 -0.966107 0.964916 0.261982 268.406 127.842)" stroke="url(#paint9_linear_21_210)" stroke-width="2.58203" stroke-linecap="round"/>
<line x1="1.29102" y1="-1.29102" x2="35.1807" y2="-1.29102" transform="matrix(0.257886 -0.966331 -0.951247 -0.307916 231.719 117.528)" stroke="url(#paint10_linear_21_210)" stroke-width="2.58203" stroke-linecap="round"/>
<defs>
<filter id="filter0_f_21_210" x="-197.073" y="-228.073" width="737.146" height="619.146" filterUnits="userSpaceOnUse" color-interpolation-filters="sRGB">
<feFlood flood-opacity="0" result="BackgroundImageFix"/>
<feBlend mode="normal" in="SourceGraphic" in2="BackgroundImageFix" result="shape"/>
<feGaussianBlur stdDeviation="98.5366" result="effect1_foregroundBlur_21_210"/>
</filter>
<filter id="filter1_b_21_210" x="206.097" y="14.9035" width="116.196" height="135.115" filterUnits="userSpaceOnUse" color-interpolation-filters="sRGB">
<feFlood flood-opacity="0" result="BackgroundImageFix"/>
<feGaussianBlur in="BackgroundImageFix" stdDeviation="4.454"/>
<feComposite in2="SourceAlpha" operator="in" result="effect1_backgroundBlur_21_210"/>
<feBlend mode="normal" in="SourceGraphic" in2="effect1_backgroundBlur_21_210" result="shape"/>
</filter>
<linearGradient id="paint0_linear_21_210" x1="171.7" y1="-30.9984" x2="171.7" y2="194" gradientUnits="userSpaceOnUse">
<stop stop-color="#FF9800"/>
<stop offset="1" stop-color="#FF9800" stop-opacity="0.46"/>
</linearGradient>
<linearGradient id="paint1_linear_21_210" x1="200" y1="113.069" x2="184.69" y2="114.241" gradientUnits="userSpaceOnUse">
<stop stop-color="#FF9800"/>
<stop offset="1" stop-color="#FFEACB"/>
</linearGradient>
<linearGradient id="paint2_linear_21_210" x1="312" y1="133.069" x2="296.69" y2="134.241" gradientUnits="userSpaceOnUse">
<stop stop-color="#FF9800"/>
<stop offset="1" stop-color="#FFE4BD"/>
</linearGradient>
<linearGradient id="paint3_linear_21_210" x1="331" y1="56" x2="220" y2="64.5" gradientUnits="userSpaceOnUse">
<stop stop-color="#FF9800" stop-opacity="0.73"/>
<stop offset="1" stop-color="#FFE2B8"/>
</linearGradient>
<linearGradient id="paint4_linear_21_210" x1="217.683" y1="92.4301" x2="270.427" y2="48.1069" gradientUnits="userSpaceOnUse">
<stop stop-color="#FF9800" stop-opacity="0.57"/>
<stop offset="1" stop-color="#FFB74D" stop-opacity="0.77"/>
</linearGradient>
<linearGradient id="paint5_linear_21_210" x1="231.727" y1="124.094" x2="259.892" y2="119.798" gradientUnits="userSpaceOnUse">
<stop stop-color="#FF9800" stop-opacity="0.6"/>
<stop offset="1" stop-color="#FF9800" stop-opacity="0.51"/>
</linearGradient>
<linearGradient id="paint6_linear_21_210" x1="27.5612" y1="7.19392" x2="65.4141" y2="93.9885" gradientUnits="userSpaceOnUse">
<stop stop-color="#FF9800" stop-opacity="0.61"/>
<stop offset="1" stop-color="#FF9800" stop-opacity="0.43"/>
</linearGradient>
<linearGradient id="paint7_linear_21_210" x1="38.666" y1="0" x2="38.666" y2="103.57" gradientUnits="userSpaceOnUse">
<stop stop-color="white"/>
<stop offset="1" stop-color="white" stop-opacity="0.24"/>
</linearGradient>
<linearGradient id="paint8_linear_21_210" x1="8.92305" y1="0" x2="8.92305" y2="20.0295" gradientUnits="userSpaceOnUse">
<stop stop-color="#F4F3F8"/>
<stop offset="1" stop-color="#FAF9FB" stop-opacity="0.5"/>
</linearGradient>
<linearGradient id="paint9_linear_21_210" x1="-9.15597" y1="0" x2="93.4521" y2="0" gradientUnits="userSpaceOnUse">
<stop stop-color="white" stop-opacity="0.67"/>
<stop offset="1" stop-color="white" stop-opacity="0"/>
</linearGradient>
<linearGradient id="paint10_linear_21_210" x1="-4.06377" y1="0" x2="41.4776" y2="0" gradientUnits="userSpaceOnUse">
<stop stop-color="white" stop-opacity="0.67"/>
<stop offset="1" stop-color="white" stop-opacity="0"/>
</linearGradient>
<clipPath id="clip0_21_210">
<rect width="69.7129" height="103.619" fill="white" transform="matrix(-0.999966 -0.00824321 -0.00857601 0.999963 270.642 30.9219)"/>
</clipPath>
</defs>
</svg>
